<svg width="46" height="47" viewBox="0 0 46 47" fill="none" xmlns="http://www.w3.org/2000/svg">
<rect width="46" height="46" transform="translate(0 0.629639)" fill="white"/>
<path fill-rule="evenodd" clip-rule="evenodd" d="M25.5256 7.01892V7.01831H26.8674H35.3182V7.06353C35.4631 7.03388 35.6131 7.01831 35.7668 7.01831C36.9959 7.01831 37.9924 8.01474 37.9924 9.2439V37.6379C37.9924 38.8671 36.9959 39.8635 35.7668 39.8635C34.5376 39.8635 33.5412 38.8671 33.5412 37.6379V10.4757H29.093V37.6379C29.093 38.8671 28.0965 39.8635 26.8674 39.8635C25.6382 39.8635 24.6418 38.8671 24.6418 37.6379V30.3563H18.5019C12.0575 30.3563 6.83324 25.132 6.83324 18.6876C6.83324 12.2432 12.0575 7.01892 18.5019 7.01892H25.5256Z" fill="#333333"/>
</svg>
